<?xml version="1.0" standalone="no"?>
<!DOCTYPE svg PUBLIC "-//W3C//DTD SVG 20010904//EN"
 "http://www.w3.org/TR/2001/REC-SVG-20010904/DTD/svg10.dtd">
<svg version="1.0" xmlns="http://www.w3.org/2000/svg"
 width="260.000000pt" height="260.000000pt" viewBox="0 0 260.000000 260.000000"
 preserveAspectRatio="xMidYMid meet">
<metadata>
Created by potrace 1.14, written by Peter Selinger 2001-2017
</metadata>
<g transform="translate(0.000000,260.000000) scale(0.100000,-0.100000)"
fill="#000000" stroke="none">
<path d="M0 1300 l0 -1300 1300 0 1300 0 0 1300 0 1300 -1300 0 -1300 0 0
-1300z m2265 490 l-110 -110 -130 130 -130 130 110 110 110 110 130 -130 130
-130 -110 -110z m-848 -468 l-427 -427 37 -38 38 -37 427 427 428 428 57 -58
58 -57 -563 -563 -562 -562 -93 -42 c-50 -22 -156 -70 -234 -106 l-142 -65 18
41 c10 23 58 130 106 237 l87 195 561 562 562 563 35 -35 35 -35 -428 -428z"/>
<path d="M819 713 c-38 -41 -66 -84 -93 -146 -21 -48 -37 -90 -34 -93 3 -2 50
16 104 41 67 31 114 61 147 93 26 25 47 50 47 54 0 4 -14 8 -31 8 -45 0 -69
17 -69 48 0 56 -14 55 -71 -5z"/>
</g>
</svg>
